<svg xmlns="http://www.w3.org/2000/svg" width="200" height="200" viewBox="0 0 200 200" fill="none"><metadata><rdf:RDF xmlns:rdf="http://www.w3.org/1999/02/22-rdf-syntax-ns#" xmlns:dc="http://purl.org/dc/elements/1.1/"><rdf:Description><dc:creator>RealFaviconGenerator</dc:creator><dc:source>https://realfavicongenerator.net</dc:source></rdf:Description></rdf:RDF></metadata><rect width="200" height="200" fill="#171717"></rect><path d="M86.9076 113.667H60.0541C58.9933 113.667 58.1333 114.524 58.1333 115.58V129.302C58.1333 130.358 58.9933 131.215 60.0541 131.215H86.9076C87.9685 131.215 88.8284 130.358 88.8284 129.302V115.58C88.8284 114.524 87.9685 113.667 86.9076 113.667Z" fill="#28FEB4"></path><path d="M127.449 113.667H100.595C99.5347 113.667 98.6747 114.524 98.6747 115.58V129.302C98.6747 130.358 99.5347 131.215 100.595 131.215H127.449C128.51 131.215 129.37 130.358 129.37 129.302V115.58C129.37 114.524 128.51 113.667 127.449 113.667Z" fill="#28FEB4"></path><path d="M138.806 100.818V142.633C138.806 143.126 138.609 143.598 138.26 143.946C137.91 144.294 137.435 144.49 136.941 144.49H50.4875C49.9929 144.49 49.5186 144.294 49.1689 143.946C48.8192 143.598 48.6227 143.126 48.6227 142.633V105.998C48.6218 105.628 48.7322 105.266 48.9396 104.958L70.9074 71.3497C71.1162 71.0662 71.2399 70.7294 71.2641 70.3786C71.2883 70.0278 71.212 69.6774 71.044 69.3681C70.876 69.0588 70.6231 68.8034 70.3151 68.6316C70.007 68.4597 69.6563 68.3784 69.3036 68.3973H52.8558C52.5375 68.3915 52.2231 68.467 51.9423 68.6165C51.6616 68.766 51.424 68.9846 51.2521 69.2515L31.3171 99.6663C31.1121 99.9817 31.0021 100.349 31 100.725V160.143C31 160.636 31.1965 161.108 31.5462 161.456C31.8959 161.804 32.3702 162 32.8648 162H154.508C155.002 162 155.477 161.804 155.826 161.456C156.176 161.108 156.372 160.636 156.372 160.143V106.072C156.372 105.702 156.482 105.34 156.689 105.033L168.624 86.7799C168.839 86.4965 168.967 86.1578 168.995 85.8039C169.022 85.45 168.946 85.0959 168.778 84.7832C168.609 84.4706 168.354 84.2127 168.042 84.04C167.731 83.8674 167.376 83.7872 167.021 83.809H150.573C150.251 83.8123 149.936 83.8934 149.653 84.0455C149.37 84.1975 149.129 84.4159 148.95 84.6817L139.123 99.6663C138.9 100.008 138.789 100.41 138.806 100.818Z" fill="#28FEB4"></path><path d="M124.988 39.0038H108.558C108.235 38.9968 107.916 39.0735 107.631 39.2265C107.347 39.3795 107.107 39.6035 106.936 39.8765L68.9121 98.0137C68.6963 98.2984 68.5674 98.639 68.5407 98.9947C68.5141 99.3504 68.591 99.7063 68.7621 100.02C68.9333 100.333 69.1914 100.591 69.5057 100.762C69.82 100.933 70.1772 101.01 70.5345 100.985H86.9823C87.3024 100.989 87.618 100.91 87.8989 100.757C88.1798 100.605 88.4164 100.382 88.5861 100.112L126.61 41.9561C126.82 41.6713 126.944 41.3327 126.968 40.9801C126.991 40.6275 126.913 40.2755 126.743 39.9654C126.573 39.6554 126.317 39.4003 126.006 39.2299C125.695 39.0596 125.342 38.9812 124.988 39.0038Z" fill="#28FEB4"></path><path d="M149.622 57.6278H133.174C132.854 57.624 132.538 57.7023 132.258 57.8552C131.977 58.008 131.74 58.2303 131.57 58.5006L105.724 98.0138C105.509 98.2972 105.381 98.636 105.354 98.9898C105.326 99.3437 105.402 99.6979 105.57 100.011C105.739 100.323 105.994 100.581 106.306 100.754C106.617 100.926 106.972 101.007 107.327 100.985H123.775C124.095 100.989 124.411 100.91 124.692 100.757C124.973 100.605 125.21 100.382 125.379 100.112L151.319 60.5802C151.535 60.2904 151.661 59.9441 151.683 59.5838C151.704 59.2236 151.62 58.8649 151.439 58.5517C151.259 58.2385 150.992 57.9844 150.669 57.8203C150.346 57.6562 149.982 57.5893 149.622 57.6278Z" fill="#28FEB4"></path></svg>