<svg width="27" height="24" viewBox="0 0 27 24" fill="none" xmlns="http://www.w3.org/2000/svg">
<path d="M10.9385 14.5693H5.6845C5.47695 14.5693 5.3087 14.7363 5.3087 14.9424V17.6199C5.3087 17.826 5.47695 17.9931 5.6845 17.9931H10.9385C11.146 17.9931 11.3143 17.826 11.3143 17.6199V14.9424C11.3143 14.7363 11.146 14.5693 10.9385 14.5693Z" fill="#28FEB4"/>
<path d="M18.8705 14.5693H13.6165C13.409 14.5693 13.2407 14.7363 13.2407 14.9424V17.6199C13.2407 17.826 13.409 17.9931 13.6165 17.9931H18.8705C19.078 17.9931 19.2463 17.826 19.2463 17.6199V14.9424C19.2463 14.7363 19.078 14.5693 18.8705 14.5693Z" fill="#28FEB4"/>
<path d="M21.0924 12.062V20.2211C21.0924 20.3172 21.054 20.4094 20.9856 20.4773C20.9172 20.5453 20.8243 20.5834 20.7276 20.5834H3.81277C3.716 20.5834 3.6232 20.5453 3.55478 20.4773C3.48636 20.4094 3.44791 20.3172 3.44791 20.2211V13.0728C3.44775 13.0005 3.46934 12.9299 3.50993 12.8699L7.80796 6.31214C7.84883 6.25681 7.87302 6.19109 7.87776 6.12265C7.88249 6.0542 7.86756 5.98583 7.83469 5.92548C7.80182 5.86513 7.75235 5.8153 7.69208 5.78177C7.6318 5.74823 7.56318 5.73238 7.49419 5.73606H4.27614C4.21387 5.73493 4.15234 5.74965 4.09741 5.77882C4.04249 5.808 3.996 5.85066 3.96237 5.90273L0.0620418 11.8373C0.0219417 11.8989 0.000402877 11.9705 0 12.0438V23.6377C0 23.7338 0.0384455 23.8259 0.10687 23.8939C0.175294 23.9618 0.268091 24 0.364858 24H24.1645C24.2613 24 24.3541 23.9618 24.4225 23.8939C24.491 23.8259 24.5294 23.7338 24.5294 23.6377V13.0873C24.5292 13.015 24.5508 12.9444 24.5914 12.8844L26.9265 9.32291C26.9685 9.26761 26.9936 9.20152 26.9989 9.13247C27.0043 9.06342 26.9895 8.99431 26.9565 8.93332C26.9235 8.87232 26.8736 8.82199 26.8126 8.7883C26.7517 8.75461 26.6823 8.73898 26.6127 8.74323H23.3947C23.3318 8.74386 23.2701 8.75969 23.2147 8.78936C23.1594 8.81903 23.1122 8.86164 23.0772 8.9135L21.1545 11.8373C21.1109 11.904 21.0892 11.9825 21.0924 12.062Z" fill="#28FEB4"/>
<path d="M18.3889 0.000745744H15.1745C15.1112 -0.000626811 15.0487 0.0143457 14.9931 0.0441988C14.9374 0.0740518 14.8906 0.117749 14.857 0.17102L7.41759 11.5149C7.37535 11.5704 7.35013 11.6369 7.34493 11.7063C7.33972 11.7757 7.35476 11.8451 7.38824 11.9063C7.42172 11.9674 7.47223 12.0177 7.53373 12.0511C7.59522 12.0845 7.66511 12.0996 7.73502 12.0946H10.9531C11.0157 12.0953 11.0774 12.08 11.1324 12.0502C11.1874 12.0204 11.2336 11.977 11.2668 11.9243L18.7063 0.576803C18.7474 0.521232 18.7717 0.455164 18.7763 0.386361C18.7809 0.317558 18.7657 0.248871 18.7323 0.188379C18.699 0.127887 18.649 0.078102 18.5881 0.0448622C18.5273 0.0116223 18.4582 -0.00367456 18.3889 0.000745744Z" fill="#28FEB4"/>
<path d="M23.2086 3.6347H19.9906C19.928 3.63396 19.8662 3.64924 19.8113 3.67906C19.7563 3.70888 19.71 3.75226 19.6768 3.805L14.6199 11.5149C14.5779 11.5702 14.5528 11.6363 14.5474 11.7053C14.5421 11.7744 14.5569 11.8435 14.5899 11.9045C14.6229 11.9655 14.6728 12.0158 14.7337 12.0495C14.7947 12.0832 14.864 12.0989 14.9336 12.0946H18.1517C18.2143 12.0953 18.2761 12.0801 18.331 12.0502C18.386 12.0204 18.4323 11.977 18.4655 11.9243L23.5406 4.21078C23.5829 4.15422 23.6076 4.08665 23.6118 4.01636C23.616 3.94606 23.5995 3.87609 23.5642 3.81497C23.529 3.75386 23.4766 3.70427 23.4135 3.67225C23.3503 3.64023 23.2791 3.62718 23.2086 3.6347Z" fill="#28FEB4"/>
</svg>
