<svg width="960" height="1080" viewBox="0 0 960 1080" fill="none" xmlns="http://www.w3.org/2000/svg">
<g clip-path="url(#clip0_7642_12436)">
<rect width="960" height="1080" fill="url(#paint0_linear_7642_12436)"/>
<path d="M734.738 621.539H570.114C563.611 621.539 558.339 626.809 558.339 633.309V717.761C558.339 724.262 563.611 729.532 570.114 729.532H734.738C741.241 729.532 746.513 724.262 746.513 717.761V633.309C746.513 626.809 741.241 621.539 734.738 621.539Z" fill="url(#paint1_linear_7642_12436)"/>
<path d="M983.274 621.539H818.65C812.147 621.539 806.875 626.809 806.875 633.309V717.761C806.875 724.262 812.147 729.532 818.65 729.532H983.274C989.778 729.532 995.049 724.262 995.049 717.761V633.309C995.049 626.809 989.778 621.539 983.274 621.539Z" fill="url(#paint2_linear_7642_12436)"/>
<path d="M1052.9 542.454V799.808C1052.9 802.839 1051.69 805.746 1049.55 807.889C1047.4 810.032 1044.5 811.236 1041.46 811.236H511.467C508.435 811.236 505.527 810.032 503.383 807.889C501.239 805.746 500.035 802.839 500.035 799.808V574.338C500.029 572.058 500.706 569.83 501.978 567.938L636.65 361.095C637.93 359.35 638.688 357.277 638.836 355.118C638.985 352.959 638.517 350.803 637.487 348.9C636.457 346.996 634.907 345.424 633.018 344.367C631.13 343.309 628.98 342.809 626.818 342.925H525.986C524.034 342.889 522.107 343.354 520.386 344.274C518.665 345.194 517.208 346.54 516.154 348.182L393.944 535.369C392.688 537.31 392.013 539.571 392 541.883V907.572C392 910.603 393.205 913.51 395.349 915.653C397.493 917.796 400.4 919 403.432 919H1149.16C1152.19 919 1155.1 917.796 1157.24 915.653C1159.38 913.51 1160.59 910.603 1160.59 907.572V574.795C1160.58 572.516 1161.26 570.287 1162.53 568.396L1235.7 456.06C1237.01 454.316 1237.8 452.231 1237.97 450.053C1238.13 447.875 1237.67 445.696 1236.64 443.772C1235.6 441.848 1234.04 440.26 1232.13 439.198C1230.22 438.135 1228.05 437.642 1225.87 437.776H1125.03C1123.06 437.796 1121.13 438.295 1119.4 439.231C1117.66 440.167 1116.18 441.511 1115.09 443.147L1054.84 535.369C1053.47 537.473 1052.79 539.948 1052.9 542.454Z" fill="url(#paint3_linear_7642_12436)"/>
<path d="M968.185 162.024H867.467C865.485 161.98 863.526 162.452 861.783 163.394C860.039 164.336 858.571 165.714 857.521 167.394L624.418 525.198C623.094 526.95 622.304 529.047 622.141 531.236C621.978 533.425 622.449 535.615 623.498 537.544C624.547 539.473 626.13 541.058 628.057 542.111C629.984 543.164 632.173 543.641 634.364 543.483H735.196C737.158 543.507 739.093 543.025 740.815 542.084C742.537 541.143 743.988 539.775 745.028 538.112L978.13 180.193C979.419 178.441 980.18 176.357 980.324 174.186C980.469 172.016 979.991 169.85 978.946 167.942C977.902 166.034 976.334 164.463 974.428 163.415C972.522 162.367 970.356 161.884 968.185 162.024Z" fill="url(#paint4_linear_7642_12436)"/>
<path d="M1119.2 276.645H1018.37C1016.41 276.621 1014.47 277.103 1012.75 278.044C1011.03 278.984 1009.58 280.353 1008.54 282.016L850.089 525.199C848.774 526.943 847.987 529.028 847.82 531.206C847.653 533.384 848.115 535.563 849.149 537.487C850.184 539.411 851.748 540.999 853.657 542.062C855.566 543.124 857.74 543.618 859.921 543.484H960.753C962.715 543.507 964.65 543.025 966.372 542.085C968.094 541.144 969.545 539.776 970.585 538.112L1129.61 294.815C1130.93 293.031 1131.71 290.9 1131.84 288.683C1131.97 286.465 1131.45 284.258 1130.35 282.331C1129.24 280.403 1127.6 278.839 1125.62 277.829C1123.64 276.819 1121.41 276.407 1119.2 276.645Z" fill="url(#paint5_linear_7642_12436)"/>
</g>
<defs>
<linearGradient id="paint0_linear_7642_12436" x1="510.75" y1="-8.51964e-06" x2="1338.72" y2="468.161" gradientUnits="userSpaceOnUse">
<stop offset="0.45" stop-color="#171717"/>
<stop offset="1" stop-color="#EC1F52" stop-opacity="0.3"/>
</linearGradient>
<linearGradient id="paint1_linear_7642_12436" x1="1238.11" y1="186.981" x2="170.791" y2="850.073" gradientUnits="userSpaceOnUse">
<stop offset="0.19" stop-color="#171717" stop-opacity="0.7"/>
<stop offset="0.26" stop-color="#151112" stop-opacity="0.7"/>
<stop offset="0.33" stop-color="#231317" stop-opacity="0.7"/>
<stop offset="0.41" stop-color="#3B1720" stop-opacity="0.7"/>
<stop offset="0.49" stop-color="#5D1D2C" stop-opacity="0.7"/>
<stop offset="0.57" stop-color="#88253E" stop-opacity="0.7"/>
<stop offset="0.66" stop-color="#BB2D4E" stop-opacity="0.7"/>
<stop offset="0.73" stop-color="#EC1F52" stop-opacity="0.7"/>
</linearGradient>
<linearGradient id="paint2_linear_7642_12436" x1="1238.11" y1="186.981" x2="170.791" y2="850.073" gradientUnits="userSpaceOnUse">
<stop offset="0.19" stop-color="#171717" stop-opacity="0.7"/>
<stop offset="0.26" stop-color="#151112" stop-opacity="0.7"/>
<stop offset="0.33" stop-color="#231317" stop-opacity="0.7"/>
<stop offset="0.41" stop-color="#3B1720" stop-opacity="0.7"/>
<stop offset="0.49" stop-color="#5D1D2C" stop-opacity="0.7"/>
<stop offset="0.57" stop-color="#88253E" stop-opacity="0.7"/>
<stop offset="0.66" stop-color="#BB2D4E" stop-opacity="0.7"/>
<stop offset="0.73" stop-color="#EC1F52" stop-opacity="0.7"/>
</linearGradient>
<linearGradient id="paint3_linear_7642_12436" x1="1238.11" y1="186.981" x2="170.791" y2="850.073" gradientUnits="userSpaceOnUse">
<stop offset="0.19" stop-color="#171717" stop-opacity="0.7"/>
<stop offset="0.26" stop-color="#151112" stop-opacity="0.7"/>
<stop offset="0.33" stop-color="#231317" stop-opacity="0.7"/>
<stop offset="0.41" stop-color="#3B1720" stop-opacity="0.7"/>
<stop offset="0.49" stop-color="#5D1D2C" stop-opacity="0.7"/>
<stop offset="0.57" stop-color="#88253E" stop-opacity="0.7"/>
<stop offset="0.66" stop-color="#BB2D4E" stop-opacity="0.7"/>
<stop offset="0.73" stop-color="#EC1F52" stop-opacity="0.7"/>
</linearGradient>
<linearGradient id="paint4_linear_7642_12436" x1="1238.11" y1="186.981" x2="170.791" y2="850.073" gradientUnits="userSpaceOnUse">
<stop offset="0.19" stop-color="#171717" stop-opacity="0.7"/>
<stop offset="0.26" stop-color="#151112" stop-opacity="0.7"/>
<stop offset="0.33" stop-color="#231317" stop-opacity="0.7"/>
<stop offset="0.41" stop-color="#3B1720" stop-opacity="0.7"/>
<stop offset="0.49" stop-color="#5D1D2C" stop-opacity="0.7"/>
<stop offset="0.57" stop-color="#88253E" stop-opacity="0.7"/>
<stop offset="0.66" stop-color="#BB2D4E" stop-opacity="0.7"/>
<stop offset="0.73" stop-color="#EC1F52" stop-opacity="0.7"/>
</linearGradient>
<linearGradient id="paint5_linear_7642_12436" x1="1238.11" y1="186.981" x2="170.791" y2="850.073" gradientUnits="userSpaceOnUse">
<stop offset="0.19" stop-color="#171717" stop-opacity="0.7"/>
<stop offset="0.26" stop-color="#151112" stop-opacity="0.7"/>
<stop offset="0.33" stop-color="#231317" stop-opacity="0.7"/>
<stop offset="0.41" stop-color="#3B1720" stop-opacity="0.7"/>
<stop offset="0.49" stop-color="#5D1D2C" stop-opacity="0.7"/>
<stop offset="0.57" stop-color="#88253E" stop-opacity="0.7"/>
<stop offset="0.66" stop-color="#BB2D4E" stop-opacity="0.7"/>
<stop offset="0.73" stop-color="#EC1F52" stop-opacity="0.7"/>
</linearGradient>
<clipPath id="clip0_7642_12436">
<rect width="960" height="1080" fill="white"/>
</clipPath>
</defs>
</svg>