<svg width="158" height="28" viewBox="0 0 158 28" fill="none" xmlns="http://www.w3.org/2000/svg">
<path d="M45.2472 5.31301H47.509V26.7549H45.2472V5.31301ZM56.5562 5.31301H59.332L50.0792 15.7974L59.7741 26.7549H56.9006L47.509 15.7974L56.5562 5.31301Z" fill="white"/>
<path d="M63.1411 24.9603H66.1843V13.4835H63.1411V11.5913H68.4718V24.9603H71.5149V26.7755H63.1411V24.9603ZM65.2796 6.38764C65.2734 6.01497 65.3784 5.64891 65.581 5.33612C65.7836 5.02334 66.0748 4.77799 66.4174 4.63135C66.7599 4.48471 67.1384 4.44341 67.5045 4.51272C67.8706 4.58203 68.2078 4.75882 68.4731 5.02054C68.7384 5.28227 68.9197 5.61708 68.9941 5.9823C69.0684 6.34753 69.0324 6.72662 68.8905 7.07128C68.7487 7.41593 68.5075 7.71054 68.1976 7.91755C67.8877 8.12455 67.5233 8.23457 67.1507 8.2336C66.9003 8.25367 66.6486 8.2192 66.4128 8.13257C66.177 8.04595 65.9628 7.90922 65.785 7.7318C65.6071 7.55439 65.4698 7.34051 65.3826 7.10491C65.2953 6.8693 65.2602 6.61757 65.2796 6.36707V6.38764Z" fill="white"/>
<path d="M75.6427 11.5503H77.4316L77.4624 13.9259C78.6345 11.9925 80.2126 11.2007 82.5258 11.2007C86.3914 11.2315 88.5041 13.6019 88.5041 17.5304V26.755H86.2475V17.7618C86.2475 14.8926 84.5203 13.4837 82.058 13.4837C79.0714 13.4837 77.8994 15.4788 77.8994 18.0549V26.755H75.6427V11.5503Z" fill="white"/>
<path d="M92.1641 19.1707C92.1641 14.1316 95.3255 11.2007 100.245 11.2007C105.385 11.2007 108.331 14.2858 108.331 19.1707C108.331 24.1481 105.139 27.1098 100.245 27.1098C95.2072 27.1098 92.1641 23.9321 92.1641 19.1707ZM106.131 19.1707C106.131 15.5045 103.817 13.3397 100.245 13.3397C96.4666 13.3397 94.3899 15.5662 94.3899 19.1707C94.3899 22.8626 96.6414 24.9708 100.245 24.9708C103.936 24.9605 106.11 22.6569 106.11 19.1707H106.131Z" fill="white"/>
<path d="M113.569 11.5913V5.31301H115.826V11.5913H122.796V13.4938H115.826V21.8135C115.826 23.4846 117.054 24.6004 119.105 24.8627C120.333 24.9611 121.565 24.9903 122.796 24.9501V26.7652C121.425 26.8327 120.052 26.8138 118.684 26.7086C115.548 26.4156 113.543 24.7444 113.543 21.9935V13.4836H110.413V11.5913H113.569Z" fill="white"/>
<path d="M127.248 24.9603H130.296V13.4835H127.248V11.5913H132.578V24.9603H135.627V26.7755H127.248V24.9603ZM129.386 6.38765C129.38 6.0152 129.485 5.64935 129.687 5.33668C129.89 5.02401 130.18 4.77865 130.523 4.63186C130.865 4.48506 131.243 4.44347 131.609 4.51236C131.975 4.58126 132.312 4.75754 132.578 5.01874C132.843 5.27995 133.025 5.61427 133.1 5.97915C133.175 6.34404 133.14 6.72296 132.999 7.0677C132.857 7.41245 132.617 7.70742 132.308 7.91504C131.999 8.12266 131.635 8.23355 131.262 8.2336C131.012 8.25447 130.759 8.22058 130.523 8.1343C130.286 8.04803 130.072 7.91141 129.893 7.73391C129.715 7.5564 129.577 7.34224 129.489 7.10624C129.402 6.87025 129.367 6.61804 129.386 6.36707V6.38765Z" fill="white"/>
<path d="M146.72 27.1098C142.062 27.1098 138.752 24.0247 138.752 19.2272C138.752 14.2755 142.062 11.2007 146.72 11.2007C150.318 11.2007 153.135 12.9284 154.045 16.0649L151.845 16.4146C150.997 14.4812 149.208 13.278 146.781 13.278C143.353 13.278 141.04 15.7101 141.04 19.2272C141.04 22.6569 143.44 25.0582 146.781 25.0582C147.832 25.107 148.875 24.8473 149.78 24.311C150.685 23.7747 151.413 22.9852 151.876 22.0399L154.045 22.3895C153.109 25.4079 150.267 27.1098 146.72 27.1098Z" fill="white"/>
<path d="M15.5553 16.8222H9.83271C9.60664 16.8222 9.42338 17.0055 9.42338 17.2316V20.1687C9.42338 20.3948 9.60664 20.5781 9.83271 20.5781H15.5553C15.7814 20.5781 15.9647 20.3948 15.9647 20.1687V17.2316C15.9647 17.0055 15.7814 16.8222 15.5553 16.8222Z" fill="#28FEB4"/>
<path d="M24.1949 16.8222H18.4723C18.2462 16.8222 18.063 17.0055 18.063 17.2316V20.1687C18.063 20.3948 18.2462 20.5781 18.4723 20.5781H24.1949C24.421 20.5781 24.6043 20.3948 24.6043 20.1687V17.2316C24.6043 17.0055 24.421 16.8222 24.1949 16.8222Z" fill="#28FEB4"/>
<path d="M26.6151 14.0718V23.0223C26.6151 23.1277 26.5733 23.2288 26.4987 23.3033C26.4242 23.3778 26.3231 23.4197 26.2177 23.4197H7.794C7.6886 23.4197 7.58753 23.3778 7.513 23.3033C7.43847 23.2288 7.3966 23.1277 7.3966 23.0223V15.1806C7.39642 15.1014 7.41994 15.0239 7.46415 14.9581L12.1456 7.76429C12.1901 7.7036 12.2165 7.63151 12.2216 7.55642C12.2268 7.48134 12.2105 7.40634 12.1747 7.34014C12.1389 7.27394 12.085 7.21927 12.0194 7.18248C11.9537 7.1457 11.879 7.1283 11.8038 7.13234H8.29872C8.23088 7.1311 8.16386 7.14725 8.10404 7.17926C8.04421 7.21126 7.99358 7.25806 7.95695 7.31517L3.70869 13.8254C3.66501 13.8929 3.64155 13.9715 3.64111 14.0519V26.7702C3.64111 26.8756 3.68299 26.9767 3.75752 27.0512C3.83204 27.1258 3.93312 27.1676 4.03852 27.1676H29.9613C30.0667 27.1676 30.1678 27.1258 30.2423 27.0512C30.3168 26.9767 30.3587 26.8756 30.3587 26.7702V15.1965C30.3585 15.1173 30.382 15.0398 30.4262 14.974L32.9696 11.0671C33.0154 11.0064 33.0427 10.9339 33.0485 10.8582C33.0543 10.7824 33.0383 10.7066 33.0023 10.6397C32.9663 10.5728 32.912 10.5176 32.8456 10.4806C32.7792 10.4436 32.7037 10.4265 32.6278 10.4312H29.1227C29.0543 10.4319 28.987 10.4492 28.9267 10.4818C28.8665 10.5143 28.8151 10.5611 28.777 10.618L26.6827 13.8254C26.6352 13.8985 26.6116 13.9846 26.6151 14.0718Z" fill="#28FEB4"/>
<path d="M23.6704 0.840784H20.1692C20.1004 0.839278 20.0323 0.855703 19.9716 0.888451C19.911 0.9212 19.86 0.969135 19.8235 1.02757L11.7204 13.4716C11.6744 13.5326 11.6469 13.6055 11.6413 13.6816C11.6356 13.7577 11.652 13.8339 11.6884 13.901C11.7249 13.9681 11.7799 14.0232 11.8469 14.0598C11.9139 14.0965 11.99 14.113 12.0661 14.1075H15.5713C15.6395 14.1084 15.7067 14.0916 15.7666 14.0589C15.8264 14.0262 15.8769 13.9786 15.913 13.9207L24.0161 1.47271C24.0609 1.41175 24.0874 1.33927 24.0924 1.2638C24.0974 1.18832 24.0808 1.11297 24.0445 1.04661C24.0082 0.980256 23.9537 0.925643 23.8874 0.889179C23.8211 0.852715 23.7459 0.835935 23.6704 0.840784Z" fill="#28FEB4"/>
<path d="M28.9201 4.82718H25.415C25.3468 4.82637 25.2795 4.84313 25.2196 4.87584C25.1598 4.90856 25.1093 4.95614 25.0732 5.014L19.5652 13.4716C19.5194 13.5323 19.4921 13.6048 19.4863 13.6806C19.4805 13.7563 19.4965 13.8321 19.5325 13.899C19.5684 13.9659 19.6228 14.0212 19.6892 14.0581C19.7555 14.0951 19.8311 14.1122 19.9069 14.1076H23.412C23.4802 14.1084 23.5475 14.0916 23.6074 14.0589C23.6672 14.0262 23.7177 13.9786 23.7538 13.9208L29.2817 5.45913C29.3277 5.39709 29.3547 5.32297 29.3592 5.24585C29.3638 5.16874 29.3458 5.09198 29.3074 5.02494C29.2691 4.95789 29.212 4.90349 29.1432 4.86837C29.0744 4.83325 28.9969 4.81893 28.9201 4.82718Z" fill="#28FEB4"/>
</svg>