<svg width="44" height="44" viewBox="0 0 44 44" fill="none" xmlns="http://www.w3.org/2000/svg">
<mask id="mask0_7877_2649" style="mask-type:alpha" maskUnits="userSpaceOnUse" x="0" y="0" width="44" height="44">
<rect width="44" height="44" fill="#D9D9D9"/>
</mask>
<g mask="url(#mask0_7877_2649)">
<path d="M22 38.5C17.3861 38.5 13.4826 37.7896 10.2896 36.3687C7.09653 34.9479 5.5 33.2139 5.5 31.1667V12.8333C5.5 10.8167 7.11181 9.09028 10.3354 7.65417C13.559 6.21806 17.4472 5.5 22 5.5C26.5528 5.5 30.441 6.21806 33.6646 7.65417C36.8882 9.09028 38.5 10.8167 38.5 12.8333V31.1667C38.5 33.2139 36.9035 34.9479 33.7104 36.3687C30.5174 37.7896 26.6139 38.5 22 38.5ZM22 16.5458C24.7194 16.5458 27.4542 16.1563 30.2042 15.3771C32.9542 14.5979 34.4972 13.7653 34.8333 12.8792C34.4972 11.9931 32.9618 11.1528 30.2271 10.3583C27.4924 9.56389 24.75 9.16667 22 9.16667C19.2194 9.16667 16.4924 9.55625 13.8188 10.3354C11.1451 11.1146 9.59444 11.9625 9.16667 12.8792C9.59444 13.7958 11.1451 14.6361 13.8188 15.4C16.4924 16.1639 19.2194 16.5458 22 16.5458ZM22 25.6667C23.2833 25.6667 24.5208 25.6056 25.7125 25.4833C26.9042 25.3611 28.0424 25.1854 29.1271 24.9563C30.2118 24.7271 31.2354 24.4444 32.1979 24.1083C33.1604 23.7722 34.0389 23.3903 34.8333 22.9625V17.4625C34.0389 17.8903 33.1604 18.2722 32.1979 18.6083C31.2354 18.9444 30.2118 19.2271 29.1271 19.4563C28.0424 19.6854 26.9042 19.8611 25.7125 19.9833C24.5208 20.1056 23.2833 20.1667 22 20.1667C20.7167 20.1667 19.4639 20.1056 18.2417 19.9833C17.0194 19.8611 15.866 19.6854 14.7812 19.4563C13.6965 19.2271 12.6806 18.9444 11.7333 18.6083C10.7861 18.2722 9.93056 17.8903 9.16667 17.4625V22.9625C9.93056 23.3903 10.7861 23.7722 11.7333 24.1083C12.6806 24.4444 13.6965 24.7271 14.7812 24.9563C15.866 25.1854 17.0194 25.3611 18.2417 25.4833C19.4639 25.6056 20.7167 25.6667 22 25.6667ZM22 34.8333C23.4056 34.8333 24.834 34.7264 26.2854 34.5125C27.7368 34.2986 29.0736 34.016 30.2958 33.6646C31.5181 33.3132 32.5417 32.916 33.3667 32.4729C34.1917 32.0299 34.6806 31.5792 34.8333 31.1208V26.6292C34.0389 27.0569 33.1604 27.4389 32.1979 27.775C31.2354 28.1111 30.2118 28.3938 29.1271 28.6229C28.0424 28.8521 26.9042 29.0278 25.7125 29.15C24.5208 29.2722 23.2833 29.3333 22 29.3333C20.7167 29.3333 19.4639 29.2722 18.2417 29.15C17.0194 29.0278 15.866 28.8521 14.7812 28.6229C13.6965 28.3938 12.6806 28.1111 11.7333 27.775C10.7861 27.4389 9.93056 27.0569 9.16667 26.6292V31.1667C9.31944 31.625 9.80069 32.0681 10.6104 32.4958C11.4201 32.9236 12.4361 33.3132 13.6583 33.6646C14.8806 34.016 16.225 34.2986 17.6917 34.5125C19.1583 34.7264 20.5944 34.8333 22 34.8333Z" fill="#28FEB4"/>
</g>
</svg>
