<svg width="237" height="42" viewBox="0 0 237 42" fill="none" xmlns="http://www.w3.org/2000/svg">
<path d="M67.8855 7.96915H71.2789V40.1226H67.8855V7.96915ZM84.8526 7.96915H89.0173L75.1351 23.6912L89.6805 40.1226H85.3693L71.2789 23.6912L84.8526 7.96915Z" fill="#1F1F1F"/>
<path d="M94.7322 37.4316H99.2979V20.2213H94.7322V17.3838H102.73V37.4316H107.296V40.1535H94.7322V37.4316ZM97.9405 9.58063C97.9313 9.02179 98.0888 8.47285 98.3928 8.00381C98.6968 7.53477 99.1336 7.16686 99.6476 6.94696C100.162 6.72706 100.729 6.66513 101.279 6.76906C101.828 6.873 102.334 7.13811 102.732 7.53058C103.13 7.92305 103.402 8.42512 103.514 8.9728C103.625 9.52048 103.571 10.089 103.358 10.6058C103.145 11.1226 102.783 11.5644 102.319 11.8748C101.854 12.1852 101.307 12.3502 100.748 12.3488C100.372 12.3789 99.9944 12.3272 99.6407 12.1973C99.287 12.0674 98.9656 11.8623 98.6988 11.5963C98.4319 11.3302 98.226 11.0095 98.0951 10.6562C97.9642 10.3029 97.9114 9.92542 97.9405 9.54978V9.58063Z" fill="#1F1F1F"/>
<path d="M113.489 17.3224H116.172L116.219 20.8847C117.977 17.9855 120.345 16.798 123.815 16.798C129.615 16.8443 132.785 20.3989 132.785 26.2899V40.1228H129.399V26.6369C129.399 22.3343 126.808 20.2216 123.114 20.2216C118.633 20.2216 116.874 23.2133 116.874 27.0764V40.1228H113.489V17.3224Z" fill="#1F1F1F"/>
<path d="M138.276 28.7496C138.276 21.1931 143.019 16.798 150.4 16.798C158.112 16.798 162.531 21.4244 162.531 28.7496C162.531 36.2135 157.742 40.6549 150.4 40.6549C142.842 40.6549 138.276 35.8897 138.276 28.7496ZM159.23 28.7496C159.23 23.2519 155.76 20.0057 150.4 20.0057C144.731 20.0057 141.615 23.3444 141.615 28.7496C141.615 34.2858 144.993 37.4472 150.4 37.4472C155.937 37.4318 159.2 33.9774 159.2 28.7496H159.23Z" fill="#1F1F1F"/>
<path d="M170.39 17.3839V7.96915H173.776V17.3839H184.234V20.2368H173.776V32.7127C173.776 35.2187 175.619 36.8919 178.696 37.2851C180.538 37.4327 182.387 37.4765 184.234 37.4162V40.1381C182.177 40.2392 180.117 40.2109 178.064 40.0533C173.359 39.6137 170.352 37.1077 170.352 32.9825V20.2214H165.655V17.3839H170.39Z" fill="#1F1F1F"/>
<path d="M190.913 37.4316H195.486V20.2214H190.913V17.3838H198.91V37.4316H203.484V40.1535H190.913V37.4316ZM194.121 9.58064C194.112 9.02212 194.269 8.47351 194.573 8.00464C194.876 7.53577 195.313 7.16784 195.826 6.94772C196.34 6.72759 196.907 6.66522 197.456 6.76853C198.005 6.87184 198.511 7.13618 198.91 7.52788C199.308 7.91957 199.581 8.42091 199.693 8.96807C199.806 9.51524 199.753 10.0835 199.541 10.6004C199.329 11.1174 198.969 11.5597 198.505 11.8711C198.041 12.1824 197.495 12.3487 196.936 12.3488C196.56 12.38 196.181 12.3292 195.827 12.1999C195.472 12.0705 195.149 11.8656 194.882 11.5994C194.614 11.3333 194.407 11.0121 194.276 10.6582C194.145 10.3043 194.092 9.92613 194.121 9.54979V9.58064Z" fill="#1F1F1F"/>
<path d="M220.127 40.6549C213.14 40.6549 208.173 36.0284 208.173 28.8344C208.173 21.409 213.14 16.798 220.127 16.798C225.526 16.798 229.752 19.3888 231.117 24.0924L227.816 24.6167C226.544 21.7175 223.86 19.9132 220.22 19.9132C215.075 19.9132 211.605 23.5603 211.605 28.8344C211.605 33.9774 215.207 37.5783 220.22 37.5783C221.796 37.6515 223.36 37.262 224.718 36.4578C226.076 35.6536 227.169 34.4697 227.863 33.0522L231.117 33.5765C229.713 38.1026 225.449 40.6549 220.127 40.6549Z" fill="#1F1F1F"/>
<path d="M23.3378 25.2291H14.752C14.4129 25.2291 14.1379 25.5042 14.1379 25.8434V30.2507C14.1379 30.59 14.4129 30.865 14.752 30.865H23.3378C23.677 30.865 23.952 30.59 23.952 30.2507V25.8434C23.952 25.5042 23.677 25.2291 23.3378 25.2291Z" fill="#1F1F1F"/>
<path d="M36.3 25.2291H27.7142C27.375 25.2291 27.1001 25.5042 27.1001 25.8434V30.2507C27.1001 30.59 27.375 30.865 27.7142 30.865H36.3C36.6392 30.865 36.9141 30.59 36.9141 30.2507V25.8434C36.9141 25.5042 36.6392 25.2291 36.3 25.2291Z" fill="#1F1F1F"/>
<path d="M39.9311 21.1019V34.5325C39.9311 34.6907 39.8683 34.8424 39.7565 34.9542C39.6446 35.0661 39.493 35.1289 39.3348 35.1289H11.6933C11.5352 35.1289 11.3835 35.0661 11.2717 34.9542C11.1599 34.8424 11.0971 34.6907 11.0971 34.5325V22.7658C11.0968 22.6469 11.1321 22.5306 11.1984 22.4319L18.2221 11.6373C18.2889 11.5462 18.3284 11.4381 18.3362 11.3254C18.3439 11.2127 18.3195 11.1002 18.2658 11.0008C18.2121 10.9015 18.1312 10.8195 18.0327 10.7643C17.9342 10.7091 17.8221 10.683 17.7094 10.689H12.4506C12.3488 10.6872 12.2482 10.7114 12.1585 10.7594C12.0687 10.8075 11.9927 10.8777 11.9378 10.9634L5.56403 20.7322C5.4985 20.8335 5.4633 20.9515 5.46265 21.0721V40.1565C5.46265 40.3146 5.52547 40.4663 5.63729 40.5782C5.7491 40.69 5.90075 40.7528 6.05888 40.7528H44.9514C45.1095 40.7528 45.2612 40.69 45.373 40.5782C45.4848 40.4663 45.5476 40.3146 45.5476 40.1565V22.7897C45.5474 22.6708 45.5827 22.5545 45.649 22.4557L49.4649 16.5933C49.5335 16.5022 49.5746 16.3934 49.5832 16.2798C49.5919 16.1661 49.5679 16.0524 49.5139 15.952C49.46 15.8516 49.3784 15.7687 49.2788 15.7133C49.1792 15.6578 49.0659 15.6321 48.9521 15.6391H43.6933C43.5906 15.6401 43.4897 15.6662 43.3993 15.715C43.3089 15.7638 43.2318 15.834 43.1746 15.9194L40.0324 20.7322C39.9612 20.842 39.9258 20.9712 39.9311 21.1019Z" fill="#1F1F1F"/>
<path d="M35.513 1.2483H30.2602C30.1568 1.24604 30.0547 1.27068 29.9637 1.31982C29.8728 1.36897 29.7962 1.44089 29.7414 1.52858L17.5842 20.2014C17.5152 20.2928 17.4739 20.4022 17.4654 20.5165C17.4569 20.6307 17.4815 20.745 17.5362 20.8457C17.5909 20.9463 17.6735 21.0291 17.774 21.084C17.8745 21.139 17.9887 21.1639 18.1029 21.1556H23.3617C23.464 21.1569 23.565 21.1317 23.6548 21.0826C23.7446 21.0335 23.8202 20.9621 23.8745 20.8753L36.0317 2.19653C36.0989 2.10506 36.1386 1.9963 36.1461 1.88305C36.1537 1.76979 36.1287 1.65673 36.0743 1.55716C36.0198 1.45758 35.9381 1.37563 35.8386 1.32092C35.7392 1.2662 35.6263 1.24102 35.513 1.2483Z" fill="#1F1F1F"/>
<path d="M43.3893 7.23006H38.1305C38.0281 7.22883 37.9272 7.25398 37.8374 7.30308C37.7476 7.35217 37.6719 7.42357 37.6177 7.51038L29.3539 20.2014C29.2853 20.2925 29.2442 20.4013 29.2355 20.5149C29.2268 20.6286 29.2509 20.7423 29.3048 20.8427C29.3588 20.9431 29.4404 21.026 29.5399 21.0815C29.6395 21.1369 29.7529 21.1627 29.8666 21.1557H35.1254C35.2278 21.1569 35.3287 21.1317 35.4185 21.0827C35.5083 21.0336 35.584 20.9622 35.6382 20.8754L43.9318 8.17833C44.0009 8.08523 44.0413 7.974 44.0481 7.85829C44.055 7.74258 44.028 7.62739 43.9704 7.52679C43.9129 7.42619 43.8273 7.34456 43.724 7.29186C43.6208 7.23917 43.5045 7.21768 43.3893 7.23006Z" fill="#1F1F1F"/>
</svg>
