<svg width="25" height="24" viewBox="0 0 25 24" fill="none" xmlns="http://www.w3.org/2000/svg">
<g clip-path="url(#clip0_7881_10)">
<path fill-rule="evenodd" clip-rule="evenodd" d="M12.5 0.000854492C5.59725 0.000854492 0.000183105 5.50934 0.000183105 12.3047C0.000183105 17.7406 3.58197 22.3526 8.54813 23.9795C9.17308 24.0936 9.40259 23.7127 9.40259 23.3878C9.40259 23.0944 9.391 22.1251 9.38537 21.0969C5.9079 21.8413 5.17432 19.6454 5.17432 19.6454C4.60551 18.2234 3.78632 17.8451 3.78632 17.8451C2.652 17.0815 3.87176 17.097 3.87176 17.097C5.12696 17.184 5.78768 18.3651 5.78768 18.3651C6.90279 20.2461 8.71207 19.7023 9.42545 19.3879C9.53772 18.5928 9.86145 18.0497 10.219 17.7426C7.44263 17.4319 4.5242 16.3767 4.5242 11.6622C4.5242 10.3191 5.01237 9.22127 5.81186 8.35983C5.6822 8.04981 5.25431 6.79832 5.93324 5.10364C5.93324 5.10364 6.98277 4.77276 9.37097 6.36475C10.3683 6.09222 11.4376 5.95563 12.4999 5.95074C13.5621 5.95563 14.6324 6.09222 15.6312 6.36475C18.0171 4.77292 19.0653 5.10348 19.0653 5.10348C19.7456 6.798 19.3179 8.04949 19.1879 8.35935C19.9893 9.22095 20.4742 10.3186 20.4742 11.6617C20.4742 16.3878 17.5501 17.428 14.7668 17.7327C15.2151 18.1147 15.6147 18.8634 15.6147 20.0114C15.6147 21.6576 15.6004 22.9828 15.6004 23.3878C15.6004 23.7155 15.8251 24.0988 16.4587 23.9782C21.4232 22.3495 25 17.7392 25 12.3049C24.9999 5.50934 19.4035 0.000854492 12.5 0.000854492Z" fill="white"/>
<path d="M4.73583 17.6657C4.70817 17.7269 4.61047 17.7455 4.52155 17.7031C4.43047 17.663 4.37996 17.5796 4.40927 17.5183C4.43627 17.4555 4.53397 17.4381 4.62455 17.48C4.71529 17.5203 4.76696 17.6044 4.73583 17.6657ZM5.24073 18.2218C5.18112 18.2762 5.06437 18.2511 4.98571 18.1651C4.90358 18.0792 4.88851 17.9643 4.94895 17.9092C5.01022 17.8549 5.12349 17.8803 5.20513 17.9662C5.2871 18.0529 5.30316 18.1667 5.24073 18.2218ZM5.73354 18.9309C5.65687 18.9835 5.53152 18.9344 5.45402 18.8249C5.37735 18.7154 5.37735 18.5842 5.45567 18.5315C5.5335 18.479 5.65687 18.5266 5.73553 18.6348C5.8117 18.7462 5.8117 18.8772 5.73354 18.9309ZM6.41033 19.6156C6.34178 19.6899 6.19589 19.6699 6.08908 19.5683C5.97978 19.4692 5.94931 19.3284 6.01787 19.2541C6.08742 19.1796 6.23414 19.2003 6.34178 19.3013C6.45024 19.4001 6.4832 19.5419 6.41033 19.6156ZM7.34181 20.0128C7.31134 20.109 7.17125 20.153 7.0295 20.1118C6.88791 20.0697 6.79534 19.9569 6.82416 19.8596C6.8533 19.7626 6.99472 19.717 7.13713 19.7608C7.27839 19.8027 7.37129 19.9149 7.34181 20.0128ZM8.36436 20.0862C8.36768 20.1877 8.24778 20.272 8.09941 20.2736C7.94971 20.2769 7.82866 20.1947 7.82701 20.095C7.82701 19.9923 7.94458 19.9092 8.09362 19.9067C8.24265 19.9035 8.36436 19.9855 8.36436 20.086M9.31654 19.9273C9.33426 20.026 9.23109 20.1278 9.08338 20.1548C8.93832 20.1812 8.80402 20.1199 8.78564 20.022C8.76742 19.9204 8.87258 19.8189 9.01747 19.7926C9.16535 19.7672 9.29766 19.8267 9.31654 19.9273Z" fill="white"/>
</g>
<defs>
<clipPath id="clip0_7881_10">
<rect width="25" height="24" fill="white"/>
</clipPath>
</defs>
</svg>
