<svg width="44" height="44" viewBox="0 0 44 44" fill="none" xmlns="http://www.w3.org/2000/svg">
<mask id="mask0_7877_2657" style="mask-type:alpha" maskUnits="userSpaceOnUse" x="0" y="0" width="44" height="44">
<rect width="44" height="44" fill="#D9D9D9"/>
</mask>
<g mask="url(#mask0_7877_2657)">
<path d="M19.2056 40.3333C18.3501 40.3333 17.548 40.15 16.7994 39.7833C16.0507 39.4167 15.4167 38.8972 14.8973 38.225L4.90561 25.5292L5.77644 24.6125C6.38755 23.9708 7.12089 23.5889 7.97644 23.4667C8.832 23.3444 9.62644 23.5125 10.3598 23.9708L13.7514 26.0333V11C13.7514 10.4806 13.9271 10.0451 14.2785 9.69375C14.6299 9.34236 15.0653 9.16667 15.5848 9.16667C16.1042 9.16667 16.5473 9.34236 16.9139 9.69375C17.2806 10.0451 17.4639 10.4806 17.4639 11V32.6333L13.0181 29.8833L17.7848 35.9792C17.9681 36.1931 18.182 36.3611 18.4264 36.4833C18.6709 36.6056 18.9306 36.6667 19.2056 36.6667H29.3348C30.3431 36.6667 31.2063 36.3076 31.9244 35.5896C32.6424 34.8715 33.0014 34.0083 33.0014 33V25.6667C33.0014 25.1472 32.8257 24.7118 32.4744 24.3604C32.123 24.009 31.6876 23.8333 31.1681 23.8333H21.1306V20.1667H31.1681C32.6959 20.1667 33.9945 20.7014 35.0639 21.7708C36.1334 22.8403 36.6681 24.1389 36.6681 25.6667V33C36.6681 35.0167 35.9501 36.7431 34.5139 38.1792C33.0778 39.6153 31.3514 40.3333 29.3348 40.3333H19.2056ZM7.65561 15.5833C7.25839 14.9111 6.95283 14.1854 6.73894 13.4063C6.52505 12.6271 6.41811 11.825 6.41811 11C6.41811 8.46389 7.31186 6.30209 9.09936 4.51459C10.8869 2.72709 13.0487 1.83334 15.5848 1.83334C18.1209 1.83334 20.2827 2.72709 22.0702 4.51459C23.8577 6.30209 24.7514 8.46389 24.7514 11C24.7514 11.825 24.6445 12.6271 24.4306 13.4063C24.2167 14.1854 23.9112 14.9111 23.5139 15.5833L20.3514 13.75C20.5959 13.3222 20.7792 12.8868 20.9014 12.4438C21.0237 12.0007 21.0848 11.5194 21.0848 11C21.0848 9.47223 20.5501 8.17361 19.4806 7.10417C18.4112 6.03472 17.1126 5.5 15.5848 5.5C14.057 5.5 12.7584 6.03472 11.6889 7.10417C10.6195 8.17361 10.0848 9.47223 10.0848 11C10.0848 11.5194 10.1459 12.0007 10.2681 12.4438C10.3903 12.8868 10.5737 13.3222 10.8181 13.75L7.65561 15.5833Z" fill="#28FEB4"/>
</g>
</svg>
