<svg width="1440" height="700" viewBox="0 0 1440 700" fill="none" xmlns="http://www.w3.org/2000/svg">
<g clip-path="url(#clip0_7877_2627)">
<rect width="1440" height="700" fill="url(#paint0_linear_7877_2627)"/>
<path d="M1165.87 423.133H1056.9C1052.6 423.133 1049.11 426.621 1049.11 430.923V486.815C1049.11 491.118 1052.6 494.605 1056.9 494.605H1165.87C1170.18 494.605 1173.67 491.118 1173.67 486.815V430.923C1173.67 426.621 1170.18 423.133 1165.87 423.133Z" fill="url(#paint1_linear_7877_2627)"/>
<path d="M1330.39 423.133H1221.42C1217.11 423.133 1213.62 426.621 1213.62 430.923V486.815C1213.62 491.118 1217.11 494.605 1221.42 494.605H1330.39C1334.69 494.605 1338.18 491.118 1338.18 486.815V430.923C1338.18 426.621 1334.69 423.133 1330.39 423.133Z" fill="url(#paint2_linear_7877_2627)"/>
<path d="M1376.47 370.793V541.116C1376.47 543.122 1375.68 545.046 1374.26 546.464C1372.84 547.882 1370.91 548.679 1368.91 548.679H1018.08C1016.07 548.679 1014.15 547.882 1012.73 546.464C1011.31 545.046 1010.51 543.122 1010.51 541.116V391.894C1010.51 390.386 1010.96 388.911 1011.8 387.659L1100.94 250.766C1101.79 249.611 1102.29 248.239 1102.39 246.81C1102.49 245.381 1102.18 243.954 1101.5 242.694C1100.82 241.435 1099.79 240.394 1098.54 239.694C1097.29 238.994 1095.87 238.663 1094.44 238.74H1027.69C1026.4 238.717 1025.12 239.024 1023.98 239.633C1022.84 240.242 1021.88 241.133 1021.18 242.219L940.287 366.104C939.455 367.389 939.008 368.885 939 370.415V612.437C939 614.443 939.797 616.366 941.217 617.785C942.636 619.203 944.56 620 946.567 620H1440.19C1442.2 620 1444.12 619.203 1445.54 617.785C1446.96 616.366 1447.76 614.443 1447.76 612.437V392.197C1447.75 390.689 1448.2 389.214 1449.04 387.962L1497.48 313.616C1498.35 312.461 1498.87 311.082 1498.98 309.64C1499.09 308.199 1498.78 306.756 1498.1 305.483C1497.41 304.21 1496.38 303.159 1495.11 302.456C1493.85 301.752 1492.41 301.426 1490.97 301.515H1424.22C1422.92 301.528 1421.64 301.858 1420.49 302.478C1419.34 303.097 1418.36 303.987 1417.64 305.069L1377.76 366.104C1376.86 367.497 1376.41 369.135 1376.47 370.793Z" fill="url(#paint3_linear_7877_2627)"/>
<path d="M1320.4 119.016H1253.73C1252.42 118.987 1251.12 119.299 1249.97 119.923C1248.81 120.546 1247.84 121.458 1247.15 122.57L1092.85 359.373C1091.97 360.532 1091.45 361.92 1091.34 363.369C1091.23 364.818 1091.54 366.267 1092.24 367.544C1092.93 368.82 1093.98 369.869 1095.26 370.566C1096.53 371.263 1097.98 371.579 1099.43 371.474H1166.17C1167.47 371.49 1168.75 371.171 1169.89 370.548C1171.03 369.926 1171.99 369.02 1172.68 367.919L1326.98 131.041C1327.84 129.881 1328.34 128.502 1328.43 127.065C1328.53 125.629 1328.21 124.195 1327.52 122.932C1326.83 121.67 1325.79 120.63 1324.53 119.936C1323.27 119.243 1321.84 118.923 1320.4 119.016Z" fill="url(#paint4_linear_7877_2627)"/>
<path d="M1420.36 194.874H1353.62C1352.32 194.859 1351.04 195.178 1349.9 195.8C1348.76 196.423 1347.8 197.328 1347.11 198.429L1242.23 359.373C1241.36 360.528 1240.84 361.907 1240.72 363.349C1240.61 364.79 1240.92 366.233 1241.6 367.506C1242.29 368.78 1243.32 369.83 1244.59 370.534C1245.85 371.237 1247.29 371.564 1248.73 371.475H1315.48C1316.78 371.49 1318.06 371.171 1319.2 370.549C1320.34 369.926 1321.3 369.021 1321.99 367.92L1427.25 206.9C1428.13 205.719 1428.64 204.309 1428.73 202.841C1428.81 201.374 1428.47 199.913 1427.74 198.638C1427.01 197.362 1425.92 196.327 1424.61 195.658C1423.3 194.99 1421.83 194.717 1420.36 194.874Z" fill="url(#paint5_linear_7877_2627)"/>
</g>
<defs>
<linearGradient id="paint0_linear_7877_2627" x1="766.125" y1="-5.52199e-06" x2="1370.41" y2="790.745" gradientUnits="userSpaceOnUse">
<stop offset="0.331731" stop-color="#171717"/>
<stop offset="0.644231" stop-color="#3C1821" stop-opacity="0.878065"/>
<stop offset="0.879808" stop-color="#771B32" stop-opacity="0.683211"/>
<stop offset="1" stop-color="#EC1F52" stop-opacity="0.3"/>
</linearGradient>
<linearGradient id="paint1_linear_7877_2627" x1="1499.07" y1="135.533" x2="792.642" y2="574.493" gradientUnits="userSpaceOnUse">
<stop offset="0.19" stop-color="#171717" stop-opacity="0.7"/>
<stop offset="0.26" stop-color="#151112" stop-opacity="0.7"/>
<stop offset="0.33" stop-color="#231317" stop-opacity="0.7"/>
<stop offset="0.41" stop-color="#3B1720" stop-opacity="0.7"/>
<stop offset="0.49" stop-color="#5D1D2C" stop-opacity="0.7"/>
<stop offset="0.57" stop-color="#88253E" stop-opacity="0.7"/>
<stop offset="0.66" stop-color="#BB2D4E" stop-opacity="0.7"/>
<stop offset="0.73" stop-color="#EC1F52" stop-opacity="0.7"/>
</linearGradient>
<linearGradient id="paint2_linear_7877_2627" x1="1499.07" y1="135.533" x2="792.642" y2="574.493" gradientUnits="userSpaceOnUse">
<stop offset="0.19" stop-color="#171717" stop-opacity="0.7"/>
<stop offset="0.26" stop-color="#151112" stop-opacity="0.7"/>
<stop offset="0.33" stop-color="#231317" stop-opacity="0.7"/>
<stop offset="0.41" stop-color="#3B1720" stop-opacity="0.7"/>
<stop offset="0.49" stop-color="#5D1D2C" stop-opacity="0.7"/>
<stop offset="0.57" stop-color="#88253E" stop-opacity="0.7"/>
<stop offset="0.66" stop-color="#BB2D4E" stop-opacity="0.7"/>
<stop offset="0.73" stop-color="#EC1F52" stop-opacity="0.7"/>
</linearGradient>
<linearGradient id="paint3_linear_7877_2627" x1="1499.07" y1="135.533" x2="792.642" y2="574.493" gradientUnits="userSpaceOnUse">
<stop offset="0.19" stop-color="#171717" stop-opacity="0.7"/>
<stop offset="0.26" stop-color="#151112" stop-opacity="0.7"/>
<stop offset="0.33" stop-color="#231317" stop-opacity="0.7"/>
<stop offset="0.41" stop-color="#3B1720" stop-opacity="0.7"/>
<stop offset="0.49" stop-color="#5D1D2C" stop-opacity="0.7"/>
<stop offset="0.57" stop-color="#88253E" stop-opacity="0.7"/>
<stop offset="0.66" stop-color="#BB2D4E" stop-opacity="0.7"/>
<stop offset="0.73" stop-color="#EC1F52" stop-opacity="0.7"/>
</linearGradient>
<linearGradient id="paint4_linear_7877_2627" x1="1499.07" y1="135.533" x2="792.642" y2="574.493" gradientUnits="userSpaceOnUse">
<stop offset="0.19" stop-color="#171717" stop-opacity="0.7"/>
<stop offset="0.26" stop-color="#151112" stop-opacity="0.7"/>
<stop offset="0.33" stop-color="#231317" stop-opacity="0.7"/>
<stop offset="0.41" stop-color="#3B1720" stop-opacity="0.7"/>
<stop offset="0.49" stop-color="#5D1D2C" stop-opacity="0.7"/>
<stop offset="0.57" stop-color="#88253E" stop-opacity="0.7"/>
<stop offset="0.66" stop-color="#BB2D4E" stop-opacity="0.7"/>
<stop offset="0.73" stop-color="#EC1F52" stop-opacity="0.7"/>
</linearGradient>
<linearGradient id="paint5_linear_7877_2627" x1="1499.07" y1="135.533" x2="792.642" y2="574.493" gradientUnits="userSpaceOnUse">
<stop offset="0.19" stop-color="#171717" stop-opacity="0.7"/>
<stop offset="0.26" stop-color="#151112" stop-opacity="0.7"/>
<stop offset="0.33" stop-color="#231317" stop-opacity="0.7"/>
<stop offset="0.41" stop-color="#3B1720" stop-opacity="0.7"/>
<stop offset="0.49" stop-color="#5D1D2C" stop-opacity="0.7"/>
<stop offset="0.57" stop-color="#88253E" stop-opacity="0.7"/>
<stop offset="0.66" stop-color="#BB2D4E" stop-opacity="0.7"/>
<stop offset="0.73" stop-color="#EC1F52" stop-opacity="0.7"/>
</linearGradient>
<clipPath id="clip0_7877_2627">
<rect width="1440" height="700" fill="white"/>
</clipPath>
</defs>
</svg>
